<svg width="23" height="23" viewBox="0 0 23 23" fill="none" xmlns="http://www.w3.org/2000/svg">
<circle cx="11.5" cy="11.5" r="11.25" fill="#395BD5" stroke="black" stroke-width="0.5"/>
<g clip-path="url(#clip0_109_123)">
<path d="M14.692 16.2916C14.692 16.2916 14.2785 15.801 13.9338 15.3675C15.4386 14.9454 16.0129 14.0098 16.0129 14.0098C15.542 14.3179 15.094 14.5347 14.692 14.683C14.1176 14.9226 13.5663 15.0823 13.0264 15.1735C11.9236 15.3789 10.9128 15.3218 10.0513 15.1621C9.39652 15.0366 8.83366 14.8541 8.3627 14.6716C8.0985 14.5689 7.81133 14.4434 7.52416 14.2837C7.4897 14.2608 7.45524 14.2494 7.42078 14.2266C7.3978 14.2152 7.38632 14.2038 7.37483 14.1924C7.16807 14.0783 7.0532 13.9984 7.0532 13.9984C7.0532 13.9984 7.60457 14.9112 9.0634 15.3447C8.71879 15.7782 8.29378 16.2916 8.29378 16.2916C5.75518 16.2117 4.79028 14.5575 4.79028 14.5575C4.79028 10.8839 6.44439 7.90625 6.44439 7.90625C8.0985 6.67412 9.67222 6.70835 9.67222 6.70835L9.78708 6.84525C7.71943 7.4385 6.76603 8.33978 6.76603 8.33978C6.76603 8.33978 7.01873 8.20287 7.44375 8.00893C8.67285 7.47272 9.64922 7.32441 10.0513 7.29019C10.1202 7.27878 10.1776 7.26737 10.2466 7.26737C10.9472 7.1761 11.7398 7.15328 12.5669 7.24455C13.6581 7.37005 14.8298 7.68949 16.0244 8.33978C16.0244 8.33978 15.117 7.48413 13.1642 6.89088L13.325 6.70835C13.325 6.70835 14.8987 6.67412 16.5528 7.90625C16.5528 7.90625 18.207 10.8839 18.207 14.5575C18.207 14.5575 17.2306 16.2117 14.692 16.2916ZM9.35057 10.9638C8.69582 10.9638 8.17891 11.5342 8.17891 12.2301C8.17891 12.9261 8.70731 13.4965 9.35057 13.4965C10.0053 13.4965 10.5222 12.9261 10.5222 12.2301C10.5337 11.5342 10.0053 10.9638 9.35057 10.9638ZM13.5433 10.9638C12.8885 10.9638 12.3716 11.5342 12.3716 12.2301C12.3716 12.9261 12.9 13.4965 13.5433 13.4965C14.198 13.4965 14.7149 12.9261 14.7149 12.2301C14.7149 11.5342 14.198 10.9638 13.5433 10.9638Z" fill="#DCDDDE"/>
</g>
<defs>
<clipPath id="clip0_109_123">
<rect width="13.4167" height="9.58333" fill="white" transform="translate(4.79163 6.70837)"/>
</clipPath>
</defs>
</svg>
